<svg xmlns="http://www.w3.org/2000/svg" width="51" height="50" viewBox="0 0 51 50" fill="none"><circle cx="25.25" cy="25" r="25" fill="#DEE7EE"></circle><path d="M28.6039 30.724C28.6039 34.252 26.0119 36.268 22.4839 36.268C18.1999 36.268 15.3199 33.748 12.5479 26.116L15.1039 25.072C17.0479 30.688 19.0999 33.64 22.2319 33.64C24.3559 33.64 25.7599 32.452 25.7599 30.4C25.7599 28.744 24.6439 27.448 23.2399 26.44C22.3399 26.692 21.2599 26.872 20.0359 26.98L19.4599 24.424C23.9599 23.848 25.1479 22.876 25.1479 20.896C25.1479 19.312 24.1039 18.304 22.1599 18.304C20.5399 18.304 18.9919 18.808 17.4439 19.744L16.5079 17.224C18.1639 16.288 20.0359 15.748 22.2679 15.748C26.3719 15.748 28.0279 18.16 28.0279 20.932C28.0279 22.804 27.3439 24.316 25.7239 25.36L25.7959 25.432C26.9479 25.72 28.2079 25.828 29.3239 25.828C30.4399 25.828 31.6279 25.72 32.8879 25.396V18.664H30.2599V16.108H39.5479V18.664H35.8039V38.5H32.8879V28.06C31.9159 28.312 30.9079 28.384 29.8999 28.384C29.3239 28.384 28.6399 28.348 27.9559 28.24C28.3879 28.996 28.6039 29.86 28.6039 30.724Z" fill="#1D1D1D"></path></svg>